<svg width="91" height="24" viewBox="0 0 91 24" fill="none" xmlns="http://www.w3.org/2000/svg">
<path d="M28.2266 17.9872C28.2266 17.2901 28.3625 16.5992 28.641 15.9146C28.9194 15.2299 29.3274 14.6075 29.8713 14.0474C30.4153 13.4872 31.0758 13.0391 31.8528 12.703C32.6299 12.3669 33.5041 12.2051 34.4754 12.2051C35.6475 12.2051 36.6706 12.4416 37.5318 12.9084C38.3931 13.3752 39.0406 13.9914 39.481 14.7445L37.2469 16.2009C37.0721 15.7839 36.826 15.4602 36.5152 15.2237C36.2044 14.9872 35.8612 14.8254 35.4921 14.732C35.123 14.6387 34.7603 14.5951 34.4107 14.5951C33.8732 14.5951 33.394 14.6947 32.986 14.9001C32.5716 15.1055 32.2349 15.3731 31.9629 15.7092C31.6909 16.0453 31.4902 16.425 31.3542 16.842C31.2182 17.259 31.1535 17.6698 31.1535 18.0681C31.1535 18.5349 31.2312 18.983 31.3931 19.4125C31.5485 19.8357 31.7751 20.2154 32.0601 20.5453C32.345 20.8752 32.6946 21.1304 33.0961 21.3233C33.5041 21.5162 33.9574 21.6096 34.4625 21.6096C34.8121 21.6096 35.1748 21.5598 35.5374 21.454C35.9 21.3482 36.2367 21.1801 36.5476 20.9374C36.8584 20.6947 37.098 20.3773 37.2599 19.9851L39.6364 21.2984C39.3774 21.8648 38.9694 22.3503 38.406 22.7549C37.8427 23.1594 37.2081 23.4706 36.5022 23.6822C35.7964 23.8939 35.0906 23.9997 34.3912 23.9997C33.4847 23.9997 32.6623 23.8254 31.9111 23.4831C31.16 23.1407 30.5059 22.6801 29.9555 22.1075C29.4051 21.5349 28.9777 20.8876 28.6798 20.1719C28.3755 19.4623 28.2266 18.7341 28.2266 17.9872Z" fill="#1B2F70"/>
<path d="M50.8195 14.645H47.0184V23.9189H44.1303V14.645H40.3098V12.2861H50.826V14.645H50.8195Z" fill="#1B2F70"/>
<path d="M54.5042 12.2861H57.606L61.9381 23.9189H58.9788L58.1305 21.311H53.9991L53.1444 23.9189H50.1851L54.5042 12.2861ZM57.5347 19.4811L56.0713 14.9936L54.6013 19.4811H57.5347Z" fill="#1B2F70"/>
<path d="M67.7467 23.9189V22.8857C67.0085 22.8297 66.3092 22.6803 65.6487 22.4251C64.9882 22.1761 64.4054 21.8276 63.8938 21.3732C63.3822 20.9251 62.9808 20.3961 62.6894 19.7861C62.398 19.1762 62.249 18.4915 62.249 17.7384C62.249 16.9541 62.4044 16.2446 62.7153 15.6222C63.0261 14.9998 63.4405 14.4708 63.9586 14.0351C64.4766 13.5994 65.0594 13.2571 65.7134 13.0081C66.3674 12.7591 67.0409 12.616 67.7467 12.5724V11.6699H70.4794V12.5724C71.1852 12.616 71.8651 12.7654 72.5127 13.0143C73.1667 13.2633 73.7495 13.6056 74.274 14.0413C74.7985 14.4708 75.2129 14.9998 75.5173 15.6222C75.8216 16.2446 75.9771 16.9479 75.9771 17.7384C75.9771 18.5039 75.8281 19.1886 75.5303 19.7923C75.2324 20.3961 74.8244 20.9313 74.3064 21.3795C73.7883 21.8338 73.2056 22.1824 72.5451 22.4313C71.8846 22.6741 71.1981 22.8297 70.4858 22.8795V23.9127H67.7467V23.9189ZM67.8179 20.7446V14.7322C67.3388 14.7882 66.8919 14.9376 66.4775 15.1741C66.0696 15.4168 65.7393 15.7467 65.4997 16.1762C65.2601 16.5994 65.1371 17.1284 65.1371 17.7508C65.1371 18.2114 65.2083 18.6222 65.3573 18.977C65.5062 19.338 65.7005 19.6429 65.953 19.8857C66.2055 20.1284 66.4905 20.3276 66.8142 20.477C67.1445 20.6201 67.4747 20.7073 67.8179 20.7446ZM70.4081 20.7446C70.8808 20.6761 71.3147 20.533 71.7227 20.3027C72.1306 20.0724 72.4544 19.7425 72.7069 19.3131C72.9595 18.8836 73.0825 18.3608 73.0825 17.7508C73.0825 17.2903 73.0113 16.8795 72.8688 16.5247C72.7264 16.1637 72.5321 15.8587 72.286 15.6098C72.04 15.3608 71.7486 15.1616 71.4248 15.0185C71.0945 14.8753 70.7578 14.782 70.4017 14.7384V20.7446H70.4081Z" fill="#1B2F70"/>
<path d="M82.7697 23.9189V22.8857C82.0314 22.8297 81.3321 22.6803 80.6716 22.4251C80.0111 22.1761 79.4283 21.8276 78.9167 21.3732C78.4052 20.9251 78.0037 20.3961 77.7123 19.7861C77.4209 19.1762 77.272 18.4915 77.272 17.7384C77.272 16.9541 77.4274 16.2446 77.7382 15.6222C78.049 14.9998 78.4635 14.4708 78.9815 14.0351C79.4995 13.5994 80.0823 13.2571 80.7364 13.0081C81.3904 12.7591 82.0638 12.616 82.7697 12.5724V11.6699H85.5023V12.5724C86.2081 12.616 86.8881 12.7654 87.5356 13.0143C88.1896 13.2633 88.7724 13.6056 89.2969 14.0413C89.8215 14.4708 90.2359 14.9998 90.5402 15.6222C90.8446 16.2446 91 16.9479 91 17.7384C91 18.5039 90.8511 19.1886 90.5532 19.7923C90.2553 20.3961 89.8474 20.9313 89.3293 21.3795C88.8113 21.8338 88.2285 22.1824 87.568 22.4313C86.9075 22.6741 86.2211 22.8297 85.5088 22.8795V23.9127H82.7697V23.9189ZM82.8409 20.7446V14.7322C82.3617 14.7882 81.9149 14.9376 81.5005 15.1741C81.0925 15.4168 80.7623 15.7467 80.5227 16.1762C80.2831 16.5994 80.16 17.1284 80.16 17.7508C80.16 18.2114 80.2313 18.6222 80.3802 18.977C80.5291 19.338 80.7234 19.6429 80.976 19.8857C81.2285 20.1284 81.5134 20.3276 81.8372 20.477C82.1674 20.6201 82.4977 20.7073 82.8409 20.7446ZM85.4311 20.7446C85.9038 20.6761 86.3376 20.533 86.7456 20.3027C87.1536 20.0724 87.4773 19.7425 87.7299 19.3131C87.9824 18.8836 88.1055 18.3608 88.1055 17.7508C88.1055 17.2903 88.0342 16.8795 87.8918 16.5247C87.7493 16.1637 87.555 15.8587 87.309 15.6098C87.0629 15.3608 86.7715 15.1616 86.4477 15.0185C86.1175 14.8753 85.7808 14.782 85.4246 14.7384V20.7446H85.4311Z" fill="#1B2F70"/>
<path d="M28.1101 3.78424C28.1101 3.31121 28.2008 2.85688 28.3821 2.40874C28.5634 1.96061 28.8289 1.55604 29.1721 1.19505C29.5218 0.834051 29.9427 0.541505 30.4413 0.323663C30.9399 0.105821 31.5033 0 32.1314 0C32.8825 0 33.5301 0.155633 34.0805 0.460612C34.6309 0.765591 35.0324 1.16392 35.2914 1.65562L34.087 2.43363C33.951 2.14732 33.7697 1.92324 33.5495 1.76142C33.3294 1.59959 33.0898 1.48133 32.8307 1.40664C32.5717 1.33818 32.3257 1.30084 32.0925 1.30084C31.6911 1.30084 31.3479 1.37552 31.05 1.5249C30.7521 1.67428 30.5125 1.87346 30.3118 2.11619C30.1175 2.35893 29.9686 2.62656 29.8714 2.93154C29.7743 3.2303 29.7225 3.53529 29.7225 3.84027C29.7225 4.17014 29.7808 4.48756 29.8973 4.79876C30.0139 5.10996 30.1758 5.38383 30.383 5.62034C30.5967 5.85685 30.8492 6.04978 31.1406 6.18671C31.4385 6.32364 31.7623 6.39835 32.112 6.39835C32.358 6.39835 32.6106 6.361 32.8696 6.28009C33.1286 6.19918 33.3747 6.07471 33.5948 5.90666C33.815 5.73861 33.9963 5.50831 34.1323 5.23445L35.4209 5.93777C35.2526 6.31744 34.9871 6.63486 34.6244 6.90249C34.2618 7.1639 33.8539 7.36931 33.4071 7.50002C32.9602 7.63695 32.5134 7.70538 32.0666 7.70538C31.4838 7.70538 30.9528 7.59336 30.4737 7.3693C29.9945 7.14523 29.58 6.84648 29.2239 6.47303C28.8742 6.09959 28.5958 5.67637 28.4015 5.20957C28.2072 4.73032 28.1101 4.25726 28.1101 3.78424Z" fill="#C43742"/>
<path d="M43.3858 7.64316V2.65769L41.2813 6.36724H40.3941L38.3026 2.65769V7.64316H36.7161V0.0498047H38.4256L40.828 4.36307L43.2563 0.0498047H44.9594V7.64316H43.3858Z" fill="#C43742"/>
<path d="M49.1039 0.0498047H50.7163L53.7144 7.64316H52.0826L51.4027 5.75106H48.4045L47.7246 7.64316H46.0928L49.1039 0.0498047ZM51.0336 4.71162L49.9133 1.58094L48.7866 4.71162H51.0336Z" fill="#C43742"/>
<path d="M54.8408 7.64316V0.0498047H58.2987C58.6743 0.0498047 59.024 0.118286 59.3413 0.261439C59.6586 0.404593 59.9306 0.597534 60.1637 0.840272C60.3968 1.08301 60.5716 1.35064 60.7011 1.65562C60.8306 1.95438 60.8889 2.25934 60.8889 2.57677C60.8889 3.00001 60.7853 3.40458 60.5781 3.79047C60.3709 4.17636 60.0795 4.4938 59.6974 4.73654C59.3154 4.97928 58.8751 5.09751 58.37 5.09751H56.4273V7.64316H54.8408ZM56.4273 3.80293H58.2664C58.4671 3.80293 58.6419 3.75314 58.7973 3.65356C58.9528 3.55397 59.0693 3.41081 59.16 3.21787C59.2506 3.03114 59.2895 2.81328 59.2895 2.57054C59.2895 2.30913 59.2377 2.0851 59.1341 1.9046C59.0305 1.7241 58.8945 1.58092 58.7326 1.48756C58.5707 1.3942 58.3894 1.34442 58.1951 1.34442H56.4273V3.80293Z" fill="#C43742"/>
<path d="M68.3228 1.34442H65.7261V7.64316H64.1526V1.34442H61.53V0.0498047H68.3228V1.34442Z" fill="#C43742"/>
<path d="M21.0777 0.566243L11.1378 6.08075C10.9954 6.16166 10.8205 6.16166 10.6781 6.08075L0.738205 0.566243C0.433857 0.398193 0.0518039 0.609802 0.0518039 0.945901L0 17.9065C0 18.0621 0.0841816 18.2114 0.226642 18.2861L10.0759 23.7509C10.3802 23.9189 10.7623 23.7073 10.7623 23.3712L10.7752 18.3919C10.7752 18.2363 10.691 18.0869 10.5486 18.0123L5.67253 15.3048C5.53007 15.2239 5.44589 15.0807 5.44589 14.9251L5.45884 9.9459C5.45884 9.6098 5.84089 9.39819 6.14524 9.56624L10.6781 12.0683C10.8205 12.1492 10.9954 12.1492 11.1314 12.0683L15.6642 9.56624C15.9686 9.39819 16.3506 9.6098 16.3506 9.9459L16.383 20.4148C16.383 20.7509 16.765 20.9625 17.0694 20.7944L21.5828 18.2923C21.7253 18.2114 21.8094 18.0683 21.8094 17.9127L21.7576 0.952131C21.7641 0.609808 21.3821 0.398193 21.0777 0.566243Z" fill="#1B2F70"/>
<path d="M10.5549 18.0186L5.67888 15.3112C5.53642 15.2302 5.45223 15.0871 5.45223 14.9315L5.46518 9.95225C5.46518 9.61615 5.84724 9.4045 6.15159 9.57255L10.6844 12.0746C10.7557 12.112 10.8334 12.1307 10.9111 12.1307V6.14313C10.8334 6.14313 10.7557 6.12444 10.6844 6.0871L0.744553 0.572591C0.440205 0.404541 0.0581515 0.61615 0.0581515 0.952249L0.00634766 17.9128C0.00634766 18.0684 0.0905293 18.2178 0.23299 18.2925L10.0822 23.7572C10.3866 23.9252 10.7686 23.7136 10.7686 23.3775L10.7816 18.3983C10.788 18.2427 10.6974 18.0933 10.5549 18.0186Z" fill="#C43742"/>
</svg>
