<svg width="23" height="20" viewBox="0 0 23 20" fill="none" xmlns="http://www.w3.org/2000/svg">
<path fill-rule="evenodd" clip-rule="evenodd" d="M13.1096 4.76172C12.005 4.76172 11.1096 5.65715 11.1096 6.76172V13.3424C11.1096 14.4469 12.005 15.3424 13.1096 15.3424H20.6522C21.7567 15.3424 22.6522 14.4469 22.6522 13.3424V6.76172C22.6522 5.65715 21.7567 4.76172 20.6522 4.76172H13.1096ZM14.3558 11.255C15.0863 11.255 15.6784 10.6628 15.6784 9.93237C15.6784 9.20193 15.0863 8.60979 14.3558 8.60979C13.6254 8.60979 13.0332 9.20193 13.0332 9.93237C13.0332 10.6628 13.6254 11.255 14.3558 11.255Z" fill="#FDFDFD"/>
<rect x="0.5" y="0.5" width="20.1613" height="18.5742" rx="1.5" stroke="#FDFDFD"/>
</svg>
