<svg width="22" height="23" viewBox="0 0 22 23" fill="none" xmlns="http://www.w3.org/2000/svg">
<path d="M19.6409 11.7529V4.36328C19.6409 3.25871 18.7455 2.36328 17.6409 2.36328H3.20703C2.10246 2.36328 1.20703 3.25871 1.20703 4.36328V17.069C1.20703 18.1736 2.10246 19.069 3.20703 19.069H11.9684" stroke="#FDFDFD"/>
<path d="M1.20703 4.36328C1.20703 3.25871 2.10246 2.36328 3.20703 2.36328H17.6409C18.7455 2.36328 19.6409 3.25871 19.6409 4.36328V8.12387H1.20703V4.36328Z" fill="#FDFDFD"/>
<path d="M5.23975 0.6327C5.23975 0.314551 5.49766 0.0566406 5.81581 0.0566406C6.13395 0.0566406 6.39186 0.314551 6.39186 0.6327V5.81723H5.23975V0.6327Z" fill="#FDFDFD"/>
<path d="M13.3042 0.6327C13.3042 0.314551 13.5621 0.0566406 13.8803 0.0566406C14.1984 0.0566406 14.4563 0.314551 14.4563 0.6327V5.81723H13.3042V0.6327Z" fill="#FDFDFD"/>
<path d="M15.882 21.9437V13.8789H18.6992C19.8555 13.8789 20.7929 14.8163 20.7929 15.9727V15.9727C20.7929 17.129 19.8555 18.0664 18.6992 18.0664H14.4563M17.6246 19.7724H14.4563" stroke="#FDFDFD" stroke-linecap="round" stroke-linejoin="round"/>
</svg>
