<svg width="19" height="21" viewBox="0 0 19 21" fill="none" xmlns="http://www.w3.org/2000/svg">
<path d="M18.0911 8.46236C17.8298 6.58258 16.9578 4.84083 15.6093 3.50541C14.2608 2.17 12.5106 1.315 10.6283 1.07213C8.74609 0.829259 6.8362 1.21199 5.19287 2.16136C3.54954 3.11073 2.26394 4.57407 1.5341 6.32598M1 2.05321V6.32598H5.27277M1 10.5987C1.30623 12.808 2.4544 14.8135 4.20458 16.1961" stroke="#FDFDFD" stroke-linecap="round" stroke-linejoin="round"/>
<path fill-rule="evenodd" clip-rule="evenodd" d="M12.582 20.999C16.1217 20.999 18.9912 18.1295 18.9912 14.5898C18.9912 11.0501 16.1217 8.18066 12.582 8.18066C9.04233 8.18066 6.17285 11.0501 6.17285 14.5898C6.17285 18.1295 9.04233 20.999 12.582 20.999ZM8.40193 11.3327C7.98772 11.3327 7.65193 11.6685 7.65193 12.0827C7.65193 12.4969 7.98772 12.8327 8.40193 12.8327H10.1668C10.2019 12.8327 10.2356 12.8466 10.2604 12.8715C10.2852 12.8963 10.2992 12.93 10.2992 12.9651V13.8475C10.2992 13.8826 10.2852 13.9163 10.2604 13.9411C10.2356 13.966 10.2019 13.9799 10.1668 13.9799H9.28435C8.8514 13.9799 8.43619 14.1519 8.13005 14.4581C7.82392 14.7642 7.65193 15.1794 7.65193 15.6123V16.4948C7.65193 16.9277 7.82392 17.3429 8.13005 17.6491C8.43619 17.9552 8.8514 18.1272 9.28435 18.1272H11.0492C11.4634 18.1272 11.7992 17.7914 11.7992 17.3772C11.7992 16.963 11.4634 16.6272 11.0492 16.6272H9.28435C9.24923 16.6272 9.21555 16.6132 9.19071 16.5884C9.16588 16.5636 9.15193 16.5299 9.15193 16.4948V15.6123C9.15193 15.5772 9.16588 15.5435 9.19071 15.5187C9.21555 15.4939 9.24923 15.4799 9.28435 15.4799H10.1668C10.5997 15.4799 11.0149 15.3079 11.3211 15.0018C11.6272 14.6957 11.7992 14.2804 11.7992 13.8475V12.9651C11.7992 12.5321 11.6272 12.1169 11.3211 11.8108C11.0149 11.5047 10.5997 11.3327 10.1668 11.3327H8.40193ZM14.4464 12.0827C14.4464 11.6685 14.1107 11.3327 13.6964 11.3327C13.2822 11.3327 12.9464 11.6685 12.9464 12.0827V13.8475C12.9464 14.2804 13.1184 14.6957 13.4246 15.0018C13.7307 15.3079 14.1459 15.4799 14.5789 15.4799H15.4613C15.5065 15.4799 15.5507 15.4759 15.5937 15.4683V17.3772C15.5937 17.7914 15.9295 18.1272 16.3437 18.1272C16.7579 18.1272 17.0937 17.7914 17.0937 17.3772V12.0827C17.0937 11.6685 16.7579 11.3327 16.3437 11.3327C15.9295 11.3327 15.5937 11.6685 15.5937 12.0827V13.9916C15.5507 13.9839 15.5065 13.9799 15.4613 13.9799H14.5789C14.5437 13.9799 14.5101 13.966 14.4852 13.9411C14.4604 13.9163 14.4464 13.8826 14.4464 13.8475V12.0827Z" fill="#FDFDFD"/>
</svg>
