<svg width="18" height="22" viewBox="0 0 18 22" fill="none" xmlns="http://www.w3.org/2000/svg">
<path d="M15.5189 21.2245H2.4812C1.37663 21.2245 0.421588 20.3083 0.706594 19.2412C1.43391 16.5178 3.96912 15.7725 9.00003 15.7725C14.0309 15.7725 16.5662 16.5178 17.2935 19.2412C17.5785 20.3083 16.6234 21.2245 15.5189 21.2245Z" stroke="#FDFDFD" stroke-linejoin="round"/>
<path d="M13.3164 7.26691C13.3164 9.70445 12.0655 12.362 9.00019 12.362C5.93491 12.362 4.68398 9.70445 4.68398 7.26691M2.52588 6.84502C2.52588 6.84502 6.43694 6.84502 9.00019 6.84502C11.5634 6.84502 15.4745 6.84502 15.4745 6.84502M13.8559 6.84502C13.8559 4.40748 12.2373 1.87976 9.00019 1.87976M9.00019 1.87976C5.76303 1.87976 4.14446 4.40748 4.14446 6.84502M9.00019 1.87976V0.776367M9.00019 1.87976V2.98315" stroke="#FDFDFD" stroke-linecap="round"/>
<path d="M14.1116 6.90817H4.22974L5.59275 3.50064L9.00028 1.79688L13.0893 3.84139L14.1116 6.90817Z" fill="#FDFDFD"/>
</svg>
