<svg width="61" height="53" viewBox="0 0 61 53" fill="none" xmlns="http://www.w3.org/2000/svg">
<path d="M20.7327 2.45778C20.7327 1.65267 21.3853 1 22.1904 1C22.9956 1 23.6482 1.65267 23.6482 2.45778V22.5251C23.6482 23.3302 22.9956 23.9828 22.1904 23.9828C21.3853 23.9828 20.7327 23.3302 20.7327 22.5251V2.45778Z" stroke="#D5DAE3"/>
<path d="M18.7749 24.5039C18.7749 24.2278 18.9988 24.0039 19.2749 24.0039H25.106C25.3822 24.0039 25.606 24.2278 25.606 24.5039V26.9089C25.606 27.1851 25.3822 27.4089 25.106 27.4089H19.2749C18.9988 27.4089 18.7749 27.1851 18.7749 26.9089V24.5039Z" fill="#D5DAE3" stroke="#D5DAE3"/>
<path d="M32.4792 24.5039C32.4792 24.2278 32.7031 24.0039 32.9792 24.0039H59.8566C60.1327 24.0039 60.3566 24.2278 60.3566 24.5039V26.9089C60.3566 27.1851 60.1327 27.4089 59.8566 27.4089H32.9792C32.7031 27.4089 32.4792 27.1851 32.4792 26.9089V24.5039Z" stroke="#D5DAE3"/>
<path d="M36.7748 50.4673L35.4457 27.4297H56.9059L55.799 50.4529C55.7606 51.2524 55.1012 51.8809 54.3008 51.8809H38.2723C37.4774 51.8809 36.8206 51.2608 36.7748 50.4673Z" stroke="#D5DAE3"/>
<path d="M15.1506 28.5746C15.3393 27.8987 15.9487 27.4297 16.6387 27.4297H28.125C28.839 27.4297 29.4406 27.9278 29.5605 28.6156C30.0686 31.5309 30.983 37.7279 30.482 42.0449C30.1597 44.8224 29.0409 48.6362 28.438 50.5565C28.2689 51.095 27.8031 51.4764 27.2427 51.5352C24.5395 51.8193 18.0755 52.3617 13.6842 51.6427C10.7068 51.1553 6.95454 49.8038 4.17219 48.6802C3.59797 48.4483 3.29138 47.9326 3.2654 47.3614C3.23917 46.7848 3.5034 46.1888 4.04862 45.8424C6.40702 44.3442 9.37705 42.1269 10.8509 39.6676C12.8456 36.3391 14.4429 31.1104 15.1506 28.5746Z" stroke="#D5DAE3"/>
<line x1="18.7749" y1="31.3242" x2="24.6271" y2="31.3242" stroke="#D5DAE3" stroke-linecap="round"/>
<path d="M8.99945 50.2224C8.99945 50.2224 11.7279 48.8172 13.1356 47.4876C14.5252 46.1752 16.0724 43.5721 16.0724 43.5721" stroke="#D5DAE3" stroke-linecap="round"/>
<path d="M15.7468 51.6953C15.7468 51.6953 18.6148 49.5363 19.9879 47.7329C21.2193 46.1156 22.4819 43.1642 22.4819 43.1642" stroke="#D5DAE3" stroke-linecap="round"/>
<circle cx="55.9621" cy="18.1203" r="2.43667" fill="#D5DAE3" stroke="#D5DAE3"/>
<circle cx="45.6837" cy="17.141" r="2.92612" fill="#D5DAE3" stroke="#D5DAE3"/>
<mask id="path-11-inside-1_288_16983" fill="white">
<path d="M37.7298 24.4831C36.9867 24.4831 36.3608 23.8584 36.6451 23.1719C36.8173 22.7563 37.0697 22.3786 37.3878 22.0604C37.706 21.7423 38.0837 21.4899 38.4993 21.3177C38.915 21.1456 39.3605 21.0569 39.8105 21.0569C40.2604 21.0569 40.7059 21.1456 41.1216 21.3177C41.5372 21.4899 41.9149 21.7423 42.2331 22.0604C42.5512 22.3786 42.8036 22.7563 42.9758 23.1719C43.2601 23.8584 42.6342 24.4831 41.8911 24.4831L39.8105 24.4831L37.7298 24.4831Z"/>
</mask>
<path d="M37.7298 24.4831C36.9867 24.4831 36.3608 23.8584 36.6451 23.1719C36.8173 22.7563 37.0697 22.3786 37.3878 22.0604C37.706 21.7423 38.0837 21.4899 38.4993 21.3177C38.915 21.1456 39.3605 21.0569 39.8105 21.0569C40.2604 21.0569 40.7059 21.1456 41.1216 21.3177C41.5372 21.4899 41.9149 21.7423 42.2331 22.0604C42.5512 22.3786 42.8036 22.7563 42.9758 23.1719C43.2601 23.8584 42.6342 24.4831 41.8911 24.4831L39.8105 24.4831L37.7298 24.4831Z" fill="#D5DAE3" stroke="#D5DAE3" stroke-width="2" mask="url(#path-11-inside-1_288_16983)"/>
<path d="M49.9126 23.9424C49.5557 23.9424 49.1967 23.7832 48.9726 23.5526C48.7577 23.3315 48.7039 23.0962 48.7978 22.8694C48.908 22.6035 49.0695 22.3618 49.273 22.1583C49.4765 21.9547 49.7182 21.7933 49.9841 21.6831C50.2501 21.573 50.5351 21.5163 50.8229 21.5163C51.1108 21.5163 51.3958 21.573 51.6618 21.6831C51.9277 21.7933 52.1693 21.9547 52.3729 22.1583C52.5764 22.3618 52.7379 22.6035 52.848 22.8694C52.942 23.0962 52.8882 23.3315 52.6733 23.5526C52.4492 23.7832 52.0902 23.9424 51.7333 23.9424L50.8229 23.9424L49.9126 23.9424Z" fill="#D5DAE3" stroke="#D5DAE3"/>
<path d="M39.8103 40.6697V23.9932H52.7806V40.7124C52.7806 41.1386 52.6486 41.5583 52.3553 41.8675C51.9737 42.2699 51.3883 42.7783 50.8228 42.8368C49.7142 42.9515 49.4875 41.2912 48.3756 41.3685C47.3767 41.4379 47.275 42.8467 46.2738 42.8368C45.2864 42.8271 45.2023 41.3997 44.2153 41.3685C43.1821 41.3358 43.0466 42.8368 42.0128 42.8368C41.3906 42.8368 40.7195 42.3049 40.2838 41.8814C39.9594 41.566 39.8103 41.1221 39.8103 40.6697Z" fill="#313A4E" stroke="#D5DAE3"/>
<path d="M60.3672 24.9727C60.3672 28.0881 58.8975 31.0759 56.2815 33.2788C53.6655 35.4818 50.1175 36.7194 46.418 36.7194C42.7184 36.7194 39.1704 35.4818 36.5544 33.2788C33.9384 31.0759 32.4688 28.0881 32.4688 24.9727" stroke="#D5DAE3"/>
</svg>
