<svg width="79" height="53" viewBox="0 0 79 53" fill="none" xmlns="http://www.w3.org/2000/svg">
<mask id="path-1-inside-1_288_16950" fill="white">
<path fill-rule="evenodd" clip-rule="evenodd" d="M32.8346 23.8329C32.7687 20.3997 29.9531 17.6367 26.4894 17.6367C22.9844 17.6367 20.1431 20.466 20.1431 23.9561C20.1431 27.2411 22.6603 29.9407 25.8789 30.2466V35.2607V36.2287V37.3475C25.8789 41.7657 29.4606 45.3475 33.8789 45.3475H65.2324C69.6507 45.3475 73.2324 41.7657 73.2324 37.3475V36.2287H73.2329V30.2466C76.4515 29.9407 78.9688 27.2411 78.9688 23.9561C78.9688 20.466 76.1274 17.6367 72.6224 17.6367C69.1587 17.6367 66.3431 20.3997 66.2772 23.8329H66.2763V23.8955L66.276 23.9561L66.2763 24.0167V35.2607H32.8355V24.0166L32.8358 23.9561L32.8355 23.8956V23.8329H32.8346Z"/>
</mask>
<path d="M32.8346 23.8329L31.8348 23.8521L31.8536 24.8329H32.8346V23.8329ZM25.8789 30.2466H26.8789V29.3372L25.9735 29.2511L25.8789 30.2466ZM73.2324 36.2287V35.2287H72.2324V36.2287H73.2324ZM73.2329 36.2287V37.2287H74.2329V36.2287H73.2329ZM73.2329 30.2466L73.1383 29.2511L72.2329 29.3372V30.2466H73.2329ZM66.2772 23.8329V24.8329H67.2582L67.277 23.8521L66.2772 23.8329ZM66.2763 23.8329V22.8329H65.2763V23.8329H66.2763ZM66.2763 23.8955L67.2763 23.9002V23.8955H66.2763ZM66.276 23.9561L65.276 23.9514L65.2761 23.9608L66.276 23.9561ZM66.2763 24.0167H67.2763L67.2763 24.012L66.2763 24.0167ZM66.2763 35.2607V36.2607H67.2763V35.2607H66.2763ZM32.8355 35.2607H31.8355V36.2607H32.8355V35.2607ZM32.8355 24.0166L31.8355 24.0119V24.0166H32.8355ZM32.8358 23.9561L33.8358 23.9608L33.8358 23.9514L32.8358 23.9561ZM32.8355 23.8956H31.8355L31.8355 23.9003L32.8355 23.8956ZM32.8355 23.8329H33.8355V22.8329H32.8355V23.8329ZM26.4894 18.6367C29.4111 18.6367 31.7794 20.9664 31.8348 23.8521L33.8344 23.8137C33.758 19.8329 30.495 16.6367 26.4894 16.6367V18.6367ZM21.1431 23.9561C21.1431 21.0223 23.5327 18.6367 26.4894 18.6367V16.6367C22.4362 16.6367 19.1431 19.9097 19.1431 23.9561H21.1431ZM25.9735 29.2511C23.2599 28.9932 21.1431 26.7171 21.1431 23.9561H19.1431C19.1431 27.7652 22.0608 30.8883 25.7843 31.2422L25.9735 29.2511ZM26.8789 35.2607V30.2466H24.8789V35.2607H26.8789ZM26.8789 36.2287V35.2607H24.8789V36.2287H26.8789ZM26.8789 37.3475V36.2287H24.8789V37.3475H26.8789ZM33.8789 44.3475C30.0129 44.3475 26.8789 41.2135 26.8789 37.3475H24.8789C24.8789 42.318 28.9083 46.3475 33.8789 46.3475V44.3475ZM65.2324 44.3475H33.8789V46.3475H65.2324V44.3475ZM72.2324 37.3475C72.2324 41.2135 69.0984 44.3475 65.2324 44.3475V46.3475C70.203 46.3475 74.2324 42.318 74.2324 37.3475H72.2324ZM72.2324 36.2287V37.3475H74.2324V36.2287H72.2324ZM73.2329 35.2287H73.2324V37.2287H73.2329V35.2287ZM72.2329 30.2466V36.2287H74.2329V30.2466H72.2329ZM77.9688 23.9561C77.9688 26.7171 75.8519 28.9932 73.1383 29.2511L73.3275 31.2422C77.051 30.8883 79.9688 27.7652 79.9688 23.9561H77.9688ZM72.6224 18.6367C75.5791 18.6367 77.9688 21.0223 77.9688 23.9561H79.9688C79.9688 19.9097 76.6757 16.6367 72.6224 16.6367V18.6367ZM67.277 23.8521C67.3324 20.9664 69.7007 18.6367 72.6224 18.6367V16.6367C68.6168 16.6367 65.3538 19.8329 65.2774 23.8137L67.277 23.8521ZM66.2763 24.8329H66.2772V22.8329H66.2763V24.8329ZM67.2763 23.8955V23.8329H65.2763V23.8955H67.2763ZM67.276 23.9608L67.2763 23.9002L65.2763 23.8908L65.2761 23.9514L67.276 23.9608ZM67.2763 24.012L67.276 23.9514L65.2761 23.9608L65.2763 24.0215L67.2763 24.012ZM67.2763 35.2607V24.0167H65.2763V35.2607H67.2763ZM32.8355 36.2607H66.2763V34.2607H32.8355V36.2607ZM31.8355 24.0166V35.2607H33.8355V24.0166H31.8355ZM31.8358 23.9514L31.8355 24.0119L33.8355 24.0214L33.8358 23.9608L31.8358 23.9514ZM31.8355 23.9003L31.8358 23.9608L33.8358 23.9514L33.8355 23.8909L31.8355 23.9003ZM31.8355 23.8329V23.8956H33.8355V23.8329H31.8355ZM32.8346 24.8329H32.8355V22.8329H32.8346V24.8329Z" fill="#D5DAE3" mask="url(#path-1-inside-1_288_16950)"/>
<path d="M32.8359 35.7559H32.3359V35.2559C32.3359 30.7513 35.9876 27.0997 40.4921 27.0997H58.6201C63.1247 27.0997 66.7763 30.7513 66.7763 35.2559V35.7559H66.2763H32.8359Z" stroke="#D5DAE3"/>
<path d="M27.9546 17.9395V17.9395C27.9546 8.30811 35.7623 0.500365 45.3937 0.500365H53.7195C63.3508 0.500365 71.1586 8.30811 71.1586 17.9395V17.9395" stroke="#D5DAE3"/>
<path d="M31.3657 44.7041V50.9844C31.3657 51.5367 31.8134 51.9844 32.3657 51.9844H33.8501C34.3017 51.9844 34.6972 51.6818 34.8153 51.246L36.5881 44.7041" stroke="#D5DAE3"/>
<path d="M66.8779 44.7041V50.9844C66.8779 51.5367 66.4302 51.9844 65.8779 51.9844H64.3935C63.942 51.9844 63.5464 51.6818 63.4283 51.246L61.6555 44.7041" stroke="#D5DAE3"/>
<path d="M0.53125 35.8203C0.53125 35.5442 0.755107 35.3203 1.03125 35.3203H28.2768C28.5529 35.3203 28.7768 35.5442 28.7768 35.8203V51.5011C28.7768 51.7772 28.5529 52.0011 28.2768 52.0011H1.03125C0.755108 52.0011 0.53125 51.7772 0.53125 51.5011V35.8203Z" fill="#313A4E" stroke="#D5DAE3"/>
<rect x="3.14258" y="21.2822" width="14.6672" height="14.0807" rx="0.5" fill="#313A4E" stroke="#D5DAE3"/>
<path d="M7.34229 21.9346C7.34229 21.3823 7.79 20.9346 8.34229 20.9346H12.6556C13.2079 20.9346 13.6556 21.3823 13.6556 21.9346V27.5836C13.6556 28.4067 12.7167 28.8773 12.0572 28.3848L11.0973 27.6679C10.7424 27.4029 10.2555 27.4029 9.90058 27.6679L8.94065 28.3848C8.28116 28.8773 7.34229 28.4067 7.34229 27.5836V21.9346Z" fill="#D5DAE3"/>
<path d="M14.6543 36.0732C14.6543 35.521 15.102 35.0732 15.6543 35.0732H19.9676C20.5199 35.0732 20.9676 35.521 20.9676 36.0732V41.7223C20.9676 42.5454 20.0287 43.016 19.3692 42.5235L18.4093 41.8066C18.0544 41.5416 17.5675 41.5416 17.2126 41.8066L16.2527 42.5235C15.5932 43.016 14.6543 42.5454 14.6543 41.7223V36.0732Z" fill="#D5DAE3"/>
</svg>
