<svg width="83" height="53" viewBox="0 0 83 53" fill="none" xmlns="http://www.w3.org/2000/svg">
<path d="M1.14282 2.5C1.14282 1.67157 1.8144 1 2.64282 1H50.6428C51.4712 1 52.1428 1.67157 52.1428 2.5V44.6633C52.1428 45.4917 51.4712 46.1633 50.6428 46.1633H2.64282C1.8144 46.1633 1.14282 45.4917 1.14282 44.6633V2.5Z" fill="#313A4E" stroke="#D5DAE3"/>
<path d="M1.14282 35.9287C1.14282 35.1003 1.8144 34.4287 2.64282 34.4287H50.6428C51.4712 34.4287 52.1428 35.1003 52.1428 35.9287V44.6634C52.1428 45.4918 51.4712 46.1634 50.6428 46.1634H2.64282C1.8144 46.1634 1.14282 45.4918 1.14282 44.6634V35.9287Z" fill="#313A4E" stroke="#D5DAE3"/>
<path d="M46.3062 18.9502C46.3062 18.1218 45.6346 17.4502 44.8062 17.4502H19.0919C18.2634 17.4502 17.5919 18.1218 17.5919 18.9502V32.991C17.5919 33.8194 18.2634 34.491 19.0919 34.491H44.8062C45.6346 34.491 46.3062 33.8194 46.3062 32.991V18.9502Z" fill="#313A4E" stroke="#D5DAE3"/>
<rect x="-0.5" y="0.5" width="14.9184" height="14.3878" rx="1.5" transform="matrix(-1 0 0 1 43.1531 2.62402)" fill="#313A4E" stroke="#D5DAE3"/>
<path d="M52.0815 27.4385C52.0815 26.61 52.7531 25.9385 53.5815 25.9385H80.3571C81.1855 25.9385 81.8571 26.61 81.8571 27.4385V44.663C81.8571 45.4914 81.1855 46.163 80.3571 46.163H53.5815C52.7531 46.163 52.0815 45.4914 52.0815 44.663V27.4385Z" fill="#313A4E" stroke="#D5DAE3"/>
<path d="M52.0815 13.7344H72.2872L81.2697 25.9997H52.0815V13.7344Z" fill="#313A4E" stroke="#D5DAE3"/>
<path d="M14.4082 46.133C14.4082 42.8925 17.0351 40.2656 20.2755 40.2656C23.516 40.2656 26.1429 42.8925 26.1429 46.133C26.1429 49.3734 23.516 52.0003 20.2755 52.0003C17.0351 52.0003 14.4082 49.3734 14.4082 46.133Z" fill="#313A4E" stroke="#D5DAE3"/>
<path d="M60.0408 46.133C60.0408 42.8925 62.6677 40.2656 65.9081 40.2656C69.1486 40.2656 71.7755 42.8925 71.7755 46.133C71.7755 49.3734 69.1486 52.0003 65.9081 52.0003C62.6677 52.0003 60.0408 49.3734 60.0408 46.133Z" fill="#313A4E" stroke="#D5DAE3"/>
<path d="M35.1428 4H39.8061V9.28699C39.8061 9.69901 39.3357 9.9342 39.0061 9.68699L38.3745 9.21326C37.8411 8.81326 37.1078 8.81326 36.5745 9.21326L35.9428 9.68699C35.6132 9.9342 35.1428 9.69901 35.1428 9.28699V4Z" fill="#D5DAE3" stroke="#D5DAE3"/>
<path d="M28.1428 18H32.8061V23.287C32.8061 23.699 32.3357 23.9342 32.0061 23.687L31.3745 23.2133C30.8411 22.8133 30.1078 22.8133 29.5745 23.2133L28.9428 23.687C28.6132 23.9342 28.1428 23.699 28.1428 23.287V18Z" fill="#D5DAE3" stroke="#D5DAE3"/>
</svg>
