<svg width="63" height="53" viewBox="0 0 63 53" fill="none" xmlns="http://www.w3.org/2000/svg">
<path d="M24.3875 15.1484C24.3875 14.32 25.059 13.6484 25.8875 13.6484H46.482C47.3105 13.6484 47.982 14.32 47.982 15.1484V27.0764C47.982 27.9048 47.3105 28.5764 46.482 28.5764H25.8875C25.059 28.5764 24.3875 27.9048 24.3875 27.0764V15.1484Z" fill="#313A4E" stroke="#D5DAE3"/>
<path d="M12.2073 30.1396C12.2073 29.3112 12.8788 28.6396 13.7073 28.6396H60.3019C61.1303 28.6396 61.8019 29.3112 61.8019 30.1396V42.536C61.8019 43.3645 61.1303 44.036 60.3019 44.036H13.7073C12.8788 44.036 12.2073 43.3645 12.2073 42.536V30.1396Z" fill="#313A4E" stroke="#D5DAE3"/>
<path d="M14.5496 46.1759C14.5496 42.9592 17.1572 40.3516 20.3739 40.3516C23.5906 40.3516 26.1982 42.9592 26.1982 46.1759C26.1982 49.3926 23.5906 52.0002 20.3739 52.0002C17.1572 52.0002 14.5496 49.3926 14.5496 46.1759Z" fill="#313A4E" stroke="#D5DAE3"/>
<path d="M47.8108 46.1759C47.8108 42.9592 50.4184 40.3516 53.6351 40.3516C56.8518 40.3516 59.4594 42.9592 59.4594 46.1759C59.4594 49.3926 56.8518 52.0002 53.6351 52.0002C50.4184 52.0002 47.8108 49.3926 47.8108 46.1759Z" fill="#313A4E" stroke="#D5DAE3"/>
<rect x="25.7927" y="1" width="13.991" height="12.5856" rx="1.5" fill="#313A4E" stroke="#D5DAE3"/>
<path d="M30.3943 1.63574C30.3943 1.3596 30.6181 1.13574 30.8943 1.13574H34.5576C34.8337 1.13574 35.0576 1.3596 35.0576 1.63574V6.42273C35.0576 6.83475 34.5872 7.06994 34.2576 6.82273L33.6259 6.34901C33.0926 5.949 32.3593 5.94901 31.8259 6.34901L31.1943 6.82273C30.8647 7.06994 30.3943 6.83475 30.3943 6.42273V1.63574Z" fill="#D5DAE3" stroke="#D5DAE3"/>
<path d="M30.3943 14.377C30.3943 14.1008 30.6181 13.877 30.8943 13.877H34.5576C34.8337 13.877 35.0576 14.1008 35.0576 14.377V19.1639C35.0576 19.576 34.5872 19.8112 34.2576 19.5639L33.6259 19.0902C33.0926 18.6902 32.3593 18.6902 31.8259 19.0902L31.1943 19.5639C30.8647 19.8112 30.3943 19.576 30.3943 19.1639V14.377Z" fill="#D5DAE3" stroke="#D5DAE3"/>
<path d="M12.1757 32.5896V21.2383C12.1757 20.1337 11.2803 19.2383 10.1757 19.2383H0.698242" stroke="#D5DAE3" stroke-linecap="round"/>
</svg>
