<svg width="43" height="53" viewBox="0 0 43 53" fill="none" xmlns="http://www.w3.org/2000/svg">
<mask id="path-1-inside-1_288_17012" fill="white">
<path fill-rule="evenodd" clip-rule="evenodd" d="M11.6872 25.0552C11.5715 24.6732 11.4042 24.3079 11.1846 23.9746C9.90256 22.0284 9.15649 19.6979 9.15649 17.1931V15.4841C9.15649 8.66697 14.6828 3.14062 21.4999 3.14062C28.317 3.14062 33.8434 8.66697 33.8434 15.4841V17.1931C33.8434 20.1654 32.7928 22.8922 31.0428 25.0227C30.7898 25.3308 30.5853 25.676 30.4302 26.0433C28.9138 29.6362 25.3687 32.1751 21.2373 32.1751C16.7364 32.1751 12.9315 29.1618 11.6872 25.0552Z"/>
</mask>
<path fill-rule="evenodd" clip-rule="evenodd" d="M11.6872 25.0552C11.5715 24.6732 11.4042 24.3079 11.1846 23.9746C9.90256 22.0284 9.15649 19.6979 9.15649 17.1931V15.4841C9.15649 8.66697 14.6828 3.14062 21.4999 3.14062C28.317 3.14062 33.8434 8.66697 33.8434 15.4841V17.1931C33.8434 20.1654 32.7928 22.8922 31.0428 25.0227C30.7898 25.3308 30.5853 25.676 30.4302 26.0433C28.9138 29.6362 25.3687 32.1751 21.2373 32.1751C16.7364 32.1751 12.9315 29.1618 11.6872 25.0552Z" fill="#313A4E"/>
<path d="M31.0428 25.0227L30.2701 24.388L31.0428 25.0227ZM30.4302 26.0433L31.3515 26.4322L30.4302 26.0433ZM11.1846 23.9746L12.0197 23.4245L11.1846 23.9746ZM11.6872 25.0552L10.7302 25.3452L11.6872 25.0552ZM8.15649 17.1931C8.15649 19.8994 8.9632 22.4202 10.3495 24.5247L12.0197 23.4245C10.8419 21.6366 10.1565 19.4964 10.1565 17.1931H8.15649ZM8.15649 15.4841V17.1931H10.1565V15.4841H8.15649ZM21.4999 2.14062C14.1306 2.14062 8.15649 8.11469 8.15649 15.4841H10.1565C10.1565 9.21925 15.2351 4.14062 21.4999 4.14062V2.14062ZM34.8434 15.4841C34.8434 8.11469 28.8693 2.14062 21.4999 2.14062V4.14062C27.7647 4.14062 32.8434 9.21925 32.8434 15.4841H34.8434ZM34.8434 17.1931V15.4841H32.8434V17.1931H34.8434ZM31.8156 25.6574C33.7071 23.3547 34.8434 20.4053 34.8434 17.1931H32.8434C32.8434 19.9255 31.8786 22.4298 30.2701 24.388L31.8156 25.6574ZM21.2373 33.1751C25.7897 33.1751 29.6863 30.3777 31.3515 26.4322L29.5089 25.6545C28.1413 28.8948 24.9477 31.1751 21.2373 31.1751V33.1751ZM10.7302 25.3452C12.097 29.8562 16.2781 33.1751 21.2373 33.1751V31.1751C17.1948 31.1751 13.766 28.4675 12.6443 24.7652L10.7302 25.3452ZM30.2701 24.388C29.9522 24.7749 29.6991 25.2041 29.5089 25.6545L31.3515 26.4322C31.4715 26.148 31.6273 25.8866 31.8156 25.6574L30.2701 24.388ZM10.3495 24.5247C10.5129 24.7727 10.6406 25.0495 10.7302 25.3452L12.6443 24.7652C12.5024 24.297 12.2955 23.8431 12.0197 23.4245L10.3495 24.5247Z" fill="#D5DAE3" mask="url(#path-1-inside-1_288_17012)"/>
<rect x="0.5" y="0.5" width="16.9492" height="6.87879" rx="2.5" transform="matrix(-4.37114e-08 1 1 4.37114e-08 17.5605 0.5)" fill="#313A4E" stroke="#D5DAE3"/>
<rect x="0.5" y="-0.5" width="29.9899" height="5.86294" rx="2.5" transform="matrix(1 0 0 -1 6.00513 19.0332)" fill="#313A4E" stroke="#D5DAE3"/>
<path d="M10.2069 49.3325L7.84331 34.5508C1.95613 39.646 0.566397 44.4321 0.652366 47.3407C0.688665 48.5688 1.82132 49.3325 3.04994 49.3325H10.2069Z" fill="#313A4E" stroke="#D5DAE3"/>
<path d="M32.7928 49.5952L35.1564 34.8135C41.0436 39.9087 42.4334 44.6948 42.3474 47.6034C42.3111 48.8315 41.1784 49.5952 39.9498 49.5952H32.7928Z" fill="#313A4E" stroke="#D5DAE3"/>
<path d="M25.469 40.6205H17.0053C15.7586 40.6205 14.6419 39.8495 14.2 38.6837L11.8326 32.4377C11.3059 31.0481 9.51852 30.6523 8.42556 31.6592C7.90284 32.1408 7.64681 32.8594 7.75711 33.5615L7.91231 34.5494L7.92078 34.6034L10.2345 49.3311L10.3339 49.9642C10.5632 51.4234 11.8205 52.4986 13.2976 52.4986H29.689C31.1718 52.4986 32.4321 51.4154 32.6549 49.9495L34.9874 34.6049C35.0946 33.8995 34.8882 33.1826 34.4223 32.6423C33.213 31.2399 30.9439 31.6402 30.2876 33.3718L28.2742 38.6837C27.8324 39.8495 26.7156 40.6205 25.469 40.6205Z" fill="#313A4E" stroke="#D5DAE3"/>
<path d="M12.0452 32.7027L13.2833 32.4262C13.9799 32.2706 14.7023 32.5075 15.2179 33.001C19.7298 37.3196 24.0053 36.6169 27.3671 33.2414C27.9724 32.6336 28.8682 32.3784 29.6708 32.6809L30.429 32.9667L28.1727 39.2933C27.8886 40.0898 27.1344 40.6215 26.2889 40.6215H16.0296C15.1589 40.6215 14.3882 40.0582 14.124 39.2285L12.0452 32.7027Z" fill="#313A4E" stroke="#D5DAE3"/>
<rect width="4.72727" height="1.05584" rx="0.527919" transform="matrix(1 0 0 -1 10.6284 11.0586)" fill="#D5DAE3"/>
<rect width="4.72727" height="1.05584" rx="0.527919" transform="matrix(1 0 0 -1 27.9619 11.0586)" fill="#D5DAE3"/>
<rect width="2.10101" height="2.10101" rx="1.05051" transform="matrix(1 0 0 -1 20.083 45.1465)" fill="#D5DAE3"/>
<rect width="2.10101" height="2.10101" rx="1.05051" transform="matrix(1 0 0 -1 20.083 48.8232)" fill="#D5DAE3"/>
</svg>
