<svg width="18" height="18" viewBox="0 0 18 18" fill="none" xmlns="http://www.w3.org/2000/svg">
<path d="M17.3333 4.50016C17.3289 7.90242 15.9754 11.1641 13.5696 13.5698C11.1638 15.9756 7.90219 17.3291 4.49993 17.3335C3.48327 17.3335 2.50825 16.9296 1.78936 16.2107C1.07047 15.4918 0.666599 14.5168 0.666599 13.5002C0.664959 13.2849 0.684498 13.07 0.724932 12.8585C0.755183 12.6541 0.805424 12.4531 0.874933 12.2585C0.922957 12.1216 1.00588 11.9997 1.11549 11.9047C1.22511 11.8097 1.35762 11.7449 1.49993 11.7168L6.49993 10.5752C6.63565 10.5444 6.77692 10.5481 6.91084 10.5859C7.04475 10.6238 7.16706 10.6946 7.2666 10.7918C7.38327 10.9002 7.3916 10.9085 7.92493 11.9335C9.72565 11.1127 11.1717 9.6725 11.9999 7.87516C10.9666 7.3335 10.9583 7.32516 10.8499 7.2085C10.7527 7.10896 10.6819 6.98665 10.644 6.85273C10.6062 6.71881 10.6025 6.57755 10.6333 6.44183L11.7749 1.44183C11.8069 1.30408 11.8734 1.17672 11.9681 1.07176C12.0629 0.966789 12.1828 0.887663 12.3166 0.841828C12.5144 0.771494 12.7179 0.718517 12.9249 0.683497C13.1344 0.649958 13.3462 0.633238 13.5583 0.633495C14.5706 0.648861 15.5357 1.06408 16.243 1.78852C16.9502 2.51295 17.3422 3.48777 17.3333 4.50016ZM2.33327 13.5002C2.33546 14.0741 2.56444 14.6239 2.97029 15.0298C3.37615 15.4357 3.92597 15.6646 4.49993 15.6668C7.46084 15.6646 10.2998 14.4874 12.3935 12.3938C14.4872 10.3001 15.6644 7.46107 15.6666 4.50016C15.6644 3.9262 15.4354 3.37638 15.0296 2.97052C14.6237 2.56467 14.0739 2.33569 13.4999 2.3335C13.4083 2.3335 13.3166 2.3335 13.2249 2.3335L12.3333 6.20016L12.7916 6.44183C13.5166 6.81683 14.0416 7.09183 13.7583 7.79183C13.264 9.17276 12.4683 10.4262 11.429 11.4612C10.3897 12.4962 9.13292 13.2866 7.74993 13.7752C7.09993 14.0752 6.79993 13.5085 6.42493 12.7918L6.19993 12.3335L2.33327 13.2252L2.33327 13.5002Z" fill="#FDFDFD"/>
</svg>
